<svg width="1597" height="1604" viewBox="0 0 1597 1604" fill="none" xmlns="http://www.w3.org/2000/svg">
<path d="M25.1948 381.147C47.8883 430.041 90.1502 467.78 139.48 482.011C180.395 494.078 224.677 488.645 257.611 465.521C308.287 430.329 377.906 442.877 413.1 493.501C464.834 566.432 410.023 669.988 321.365 668.931H293.479C249.678 668.931 207.08 660.036 169.481 643.787C98.1314 613.355 41.0129 554.99 15.2904 484.655C3.17434 451.723 -1.53746 417.637 0.433802 385.522C0.866518 378.407 7.0207 372.974 14.1365 373.407C19.1367 373.695 23.3197 376.82 25.1948 381.147Z" fill="url(#paint0_linear_2037_2347)"/>
<path d="M1595.52 385.522C1602.97 495.28 1529.22 601.095 1426.47 643.883C1388.87 660.133 1346.28 669.027 1302.48 669.027H1274.59C1212.9 669.027 1162.9 618.932 1162.95 557.25C1162.13 467.828 1266.18 414.128 1338.39 465.569C1371.33 488.693 1415.56 494.078 1456.52 482.059C1505.85 467.828 1548.07 430.089 1570.81 381.195C1576.05 368.84 1594.94 372.253 1595.57 385.57L1595.52 385.522Z" fill="url(#paint1_linear_2037_2347)"/>
<path d="M1181.41 751.14C1170.16 794.601 1218.72 844.792 1289.83 863.205C1360.99 881.667 1437.77 822.918 1449.02 779.457C1460.27 735.996 1401.76 724.266 1330.6 705.804C1259.44 687.343 1192.61 707.631 1181.36 751.092L1181.41 751.14Z" fill="#D48C23"/>
<path d="M425.36 751.14C436.611 794.601 388.051 844.792 316.941 863.205C245.783 881.667 169 822.918 157.75 779.457C146.499 735.996 205.012 724.266 276.17 705.804C347.327 687.343 414.158 707.631 425.408 751.092L425.36 751.14Z" fill="#D48C23"/>
<path d="M802.208 33.7012C1059.67 33.7012 1268.72 242.736 1268.72 500.183V1180.27C1268.72 1259.88 1204.1 1324.5 1124.49 1324.5H479.931C400.311 1324.5 335.692 1259.88 335.692 1180.27V500.183C335.692 242.736 544.742 33.7012 802.208 33.7012Z" fill="#D48C23"/>
<path d="M1268.72 614.941C1287.28 614.941 1302.38 599.845 1302.38 581.24C1302.38 562.634 1287.28 547.634 1268.72 547.634V547.154C1287.28 547.154 1302.38 532.058 1302.38 513.452C1302.38 494.847 1287.28 479.847 1268.72 479.847C1268.58 479.847 1268.39 479.847 1268.24 479.847C1268.24 479.655 1268.24 479.511 1268.24 479.318C1268.68 479.318 1269.06 479.318 1269.49 479.222C1287.96 477.059 1301.13 460.328 1298.97 441.867C1296.8 423.406 1280.07 410.185 1261.61 412.348C1261.17 412.396 1260.79 412.493 1260.41 412.541C1260.41 412.396 1260.36 412.204 1260.31 412.06C1260.69 411.964 1261.13 411.916 1261.51 411.82C1279.49 406.964 1290.07 388.503 1285.26 370.522C1280.41 352.59 1261.94 341.965 1244.01 346.821C1243.58 346.917 1243.19 347.109 1242.81 347.205C1242.76 347.013 1242.66 346.869 1242.62 346.676C1243 346.532 1243.39 346.388 1243.77 346.244C1260.79 338.84 1268.63 318.985 1261.22 301.966C1253.82 284.899 1233.96 277.11 1216.94 284.514C1216.56 284.706 1216.17 284.899 1215.84 285.091C1215.74 284.899 1215.64 284.754 1215.55 284.562C1215.93 284.37 1216.32 284.226 1216.65 283.985C1232.42 274.178 1237.28 253.457 1227.47 237.64C1217.66 221.871 1196.94 216.967 1181.17 226.775C1180.79 227.015 1180.5 227.256 1180.11 227.496C1180.02 227.352 1179.87 227.207 1179.78 227.015C1180.11 226.775 1180.45 226.582 1180.79 226.342C1195.02 214.371 1196.84 193.122 1184.87 178.891C1172.9 164.66 1151.65 162.834 1137.47 174.805C1137.13 175.093 1136.84 175.381 1136.55 175.67C1136.41 175.526 1136.31 175.43 1136.17 175.285C1136.46 174.997 1136.74 174.708 1137.03 174.42C1149.39 160.526 1148.19 139.228 1134.29 126.921C1120.45 114.517 1099.15 115.767 1086.79 129.613C1086.5 129.902 1086.26 130.238 1086.02 130.575C1085.88 130.478 1085.73 130.382 1085.64 130.238C1085.88 129.902 1086.17 129.613 1086.41 129.228C1096.65 113.748 1092.42 92.8349 1076.89 82.5947C1061.4 72.3545 1040.49 76.5852 1030.25 92.1137C1030.01 92.4503 1029.82 92.8349 1029.62 93.1714C1029.48 93.0752 1029.34 92.9791 1029.14 92.931C1029.34 92.5464 1029.58 92.2099 1029.77 91.8253C1037.7 74.9986 1030.44 54.9509 1013.61 47.0665C996.785 39.182 976.784 46.3934 968.851 63.22C968.659 63.6046 968.563 63.9892 968.37 64.3738C968.178 64.3258 968.034 64.2296 967.842 64.1815C967.986 63.7969 968.178 63.4123 968.322 62.9796C973.707 45.1915 963.611 26.4418 945.821 21.0573C928.032 15.6728 909.233 25.7688 903.896 43.5569C903.752 43.9896 903.703 44.3742 903.607 44.8069C903.415 44.8069 903.271 44.7107 903.078 44.7107C903.175 44.3261 903.271 43.8934 903.319 43.5088C906.011 25.0957 893.318 7.98063 874.904 5.28837C856.537 2.59611 839.421 15.2882 836.729 33.7013C836.681 34.0859 836.681 34.5186 836.632 34.9032C836.44 34.9032 836.296 34.9032 836.104 34.9032C836.104 34.4705 836.152 34.0859 836.152 33.6532C836.152 15.0959 821.103 0 802.496 0C783.889 0 768.84 15.0478 768.84 33.6052C768.84 34.0378 768.84 34.4225 768.888 34.8551C768.696 34.8551 768.552 34.8551 768.36 34.8551C768.36 34.4225 768.311 34.0378 768.263 33.6052C765.571 15.2401 748.503 2.49996 730.088 5.19221C711.722 7.8364 698.981 24.9515 701.673 43.3165C701.721 43.7492 701.818 44.1338 701.914 44.5665C701.721 44.5665 701.577 44.6627 701.385 44.6627C701.289 44.278 701.192 43.8454 701.096 43.4608C695.759 25.6726 677.008 15.5766 659.171 20.9131C641.382 26.2495 631.285 44.9992 636.622 62.8354C636.766 63.22 636.958 63.6046 637.102 63.9892C636.91 64.0373 636.718 64.1335 636.574 64.1815C636.381 63.7969 636.285 63.3642 636.093 62.9796C628.208 46.153 608.207 38.9416 591.331 46.8261C574.503 54.7106 567.291 74.7583 575.176 91.5849C575.368 91.9695 575.609 92.306 575.801 92.6426C575.657 92.7387 575.464 92.8349 575.32 92.931C575.128 92.5945 574.936 92.2099 574.695 91.8734C564.454 76.3448 543.588 72.066 528.058 82.3062C512.576 92.5464 508.297 113.411 518.538 128.94C518.779 129.277 519.019 129.565 519.26 129.902L518.779 130.238C518.538 129.902 518.298 129.613 518.009 129.277C505.653 115.383 484.354 114.133 470.507 126.488C456.612 138.844 455.362 160.093 467.718 173.987C468.007 174.324 468.295 174.564 468.584 174.853C468.439 174.997 468.343 175.093 468.199 175.237C467.911 174.949 467.622 174.66 467.334 174.42C453.102 162.449 431.851 164.276 419.879 178.458C407.907 192.689 409.734 213.89 423.918 225.861C424.254 226.15 424.639 226.342 424.927 226.582C424.831 226.727 424.687 226.871 424.591 227.063C424.254 226.823 423.918 226.582 423.581 226.342C407.811 216.535 387.041 221.342 377.233 237.159C367.424 252.928 372.28 273.649 388.05 283.504C388.387 283.745 388.772 283.889 389.156 284.081C389.06 284.226 389.012 284.37 388.916 284.514C388.531 284.322 388.195 284.129 387.81 283.985C370.742 276.533 350.933 284.322 343.481 301.341C336.077 318.408 343.865 338.215 360.886 345.667C361.27 345.811 361.655 345.955 362.088 346.1C362.039 346.244 361.991 346.436 361.895 346.58C361.511 346.436 361.126 346.292 360.693 346.196C342.76 341.34 324.249 351.965 319.393 369.897C314.537 387.83 325.162 406.291 343.096 411.146C343.529 411.243 343.913 411.291 344.346 411.387C344.346 411.579 344.298 411.723 344.25 411.916C343.817 411.868 343.433 411.771 343.048 411.723C324.585 409.56 307.806 422.733 305.642 441.194C303.43 459.655 316.652 476.386 335.115 478.597C335.548 478.597 335.932 478.597 336.365 478.645C336.365 478.789 336.365 478.982 336.365 479.126C336.221 479.126 336.028 479.126 335.884 479.126C317.325 479.126 302.229 494.222 302.229 512.779C302.229 531.337 317.325 546.432 335.884 546.432V546.913C317.325 546.913 302.229 562.009 302.229 580.566C302.229 599.124 317.325 614.22 335.884 614.22V614.701C317.325 614.701 302.229 629.796 302.229 648.354C302.229 666.911 317.325 682.007 335.884 682.007V682.488C317.325 682.488 302.229 697.535 302.229 716.141C302.229 734.746 317.325 749.794 335.884 749.794V750.275C317.325 750.275 302.229 765.323 302.229 783.928C302.229 802.534 317.325 817.581 335.884 817.581V818.062C317.325 818.062 302.229 833.11 302.229 851.715C302.229 870.321 317.325 885.369 335.884 885.369V885.849C317.325 885.849 302.229 900.897 302.229 919.503C302.229 938.108 317.325 953.108 335.884 953.108V954.117C333.673 954.117 331.461 954.358 329.297 954.79C327.182 955.223 325.066 955.848 322.999 956.714C320.98 957.531 319.008 958.589 317.181 959.79C315.354 960.992 313.623 962.435 312.085 963.973C310.546 965.511 309.152 967.242 307.902 969.069C306.7 970.896 305.642 972.867 304.825 974.886C303.959 976.954 303.334 979.069 302.902 981.184C302.469 983.348 302.229 985.559 302.229 987.771C302.229 989.982 302.469 992.194 302.902 994.357C303.334 996.521 303.959 998.636 304.825 1000.66C305.642 1002.67 306.7 1004.65 307.902 1006.47C309.152 1008.3 310.546 1010.03 312.085 1011.57C318.335 1017.82 327.038 1021.42 335.884 1021.42C338.096 1021.42 340.308 1021.18 342.471 1020.75C344.635 1020.32 346.75 1019.69 348.77 1018.83C350.789 1018.01 352.76 1016.95 354.587 1015.75C356.414 1014.55 358.145 1013.11 359.684 1011.57C364.876 1006.38 368.194 999.501 369.203 992.242C371.415 1008.73 385.502 1021.42 402.522 1021.42C419.543 1021.42 433.534 1008.88 435.842 992.53C438.197 1008.88 452.189 1021.42 469.161 1021.42C486.133 1021.42 500.172 1008.88 502.48 992.53C504.836 1008.88 518.875 1021.42 535.799 1021.42C552.723 1021.42 566.858 1008.83 569.166 992.53C571.426 1008.83 585.465 1021.42 602.485 1021.42C619.505 1021.42 633.496 1008.83 635.804 992.53C638.112 1008.83 652.151 1021.42 669.123 1021.42C686.095 1021.42 700.135 1008.83 702.443 992.53C704.75 1008.83 718.79 1021.42 735.762 1021.42C752.734 1021.42 766.773 1008.83 769.081 992.53C771.389 1008.83 785.428 1021.42 802.4 1021.42C819.372 1021.42 833.411 1008.83 835.719 992.53C838.027 1008.83 852.066 1021.42 869.038 1021.42C886.01 1021.42 900.049 1008.88 902.357 992.53C904.665 1008.88 918.704 1021.42 935.676 1021.42C952.648 1021.42 966.688 1008.88 968.995 992.53C971.351 1008.88 985.342 1021.42 1002.31 1021.42C1019.29 1021.42 1033.37 1008.83 1035.63 992.53C1037.94 1008.83 1051.98 1021.42 1068.95 1021.42C1085.92 1021.42 1100.01 1008.83 1102.32 992.53C1104.58 1008.83 1118.67 1021.42 1135.64 1021.42C1152.61 1021.42 1166.65 1008.83 1168.96 992.53C1171.27 1008.83 1185.31 1021.42 1202.28 1021.42C1219.25 1021.42 1233.38 1008.73 1235.6 992.242C1235.69 992.963 1235.79 993.636 1235.93 994.357C1236.37 996.521 1236.99 998.636 1237.81 1000.66C1238.67 1002.67 1239.73 1004.65 1240.93 1006.47C1242.14 1008.3 1243.58 1010.03 1245.12 1011.57C1251.37 1017.82 1260.07 1021.42 1268.92 1021.42C1271.13 1021.42 1273.34 1021.18 1275.5 1020.75C1277.62 1020.32 1279.73 1019.69 1281.8 1018.83C1283.82 1018.01 1285.74 1016.95 1287.57 1015.75C1289.45 1014.55 1291.13 1013.11 1292.71 1011.57C1298.97 1005.32 1302.57 996.617 1302.57 987.771C1302.57 985.559 1302.33 983.348 1301.9 981.184C1301.47 979.069 1300.84 976.954 1299.97 974.886C1299.16 972.867 1298.1 970.896 1296.9 969.069C1295.65 967.242 1294.25 965.511 1292.71 963.973C1291.18 962.435 1289.45 960.992 1287.57 959.79C1285.79 958.589 1283.82 957.531 1281.8 956.714C1279.73 955.848 1277.62 955.223 1275.5 954.79C1273.34 954.358 1271.13 954.117 1268.92 954.117V953.637C1287.47 953.637 1302.57 938.589 1302.57 919.983C1302.57 901.378 1287.47 886.33 1268.92 886.33V885.849C1287.47 885.849 1302.57 870.802 1302.57 852.196C1302.57 833.591 1287.47 818.543 1268.92 818.543V818.062C1287.47 818.062 1302.57 803.014 1302.57 784.409C1302.57 765.803 1287.47 750.756 1268.92 750.756V750.275C1287.47 750.275 1302.57 735.227 1302.57 716.622C1302.57 698.016 1287.47 682.968 1268.92 682.968V682.488C1287.47 682.488 1302.57 667.44 1302.57 648.834C1302.57 630.229 1287.47 615.181 1268.92 615.181V614.749L1268.72 614.941Z" fill="#A56300"/>
<path d="M934.427 959.982C919.811 941.858 896.108 933.781 873.51 939.214L823.171 951.233C809.372 954.502 794.996 954.502 781.198 951.233L730.858 939.214C708.261 933.829 684.558 941.906 669.942 959.982C656.575 976.521 654.508 999.549 663.595 1018.78L700.568 1097C712.155 1121.57 738.791 1135.36 765.572 1130.65L786.534 1126.95C796.92 1125.12 807.497 1125.12 817.882 1126.95L838.845 1130.65C865.625 1135.36 892.213 1121.57 903.849 1097L940.822 1018.78C949.909 999.549 947.841 976.521 934.475 959.982H934.427Z" fill="#F2E8E3"/>
<path d="M770.668 1103.3C774.274 1109.98 771.966 1115.41 765.716 1116.76C758.552 1118.3 739.656 1116.04 726.867 1105.36C710.184 1091.47 707.876 1070.22 707.684 1061.18C707.684 1059.02 709.799 1057.53 711.818 1058.35C723.406 1062.91 756.917 1077.96 770.716 1103.35L770.668 1103.3Z" fill="black"/>
<path d="M833.7 1103.3C830.094 1109.98 832.402 1115.41 838.652 1116.76C845.816 1118.3 864.711 1116.04 877.5 1105.36C894.184 1091.47 896.492 1070.22 896.684 1061.18C896.684 1059.02 894.569 1057.53 892.549 1058.35C880.962 1062.91 847.451 1077.96 833.652 1103.35L833.7 1103.3Z" fill="black"/>
<path opacity="0.1" d="M802.208 1603.1C1020.48 1603.1 1197.42 1588.16 1197.42 1569.73C1197.42 1551.3 1020.48 1536.37 802.208 1536.37C583.937 1536.37 406.994 1551.3 406.994 1569.73C406.994 1588.16 583.937 1603.1 802.208 1603.1Z" fill="black"/>
<defs>
<linearGradient id="paint0_linear_2037_2347" x1="0.00108617" y1="521.193" x2="433.101" y2="521.193" gradientUnits="userSpaceOnUse">
<stop stop-color="#F0E6E1"/>
<stop offset="0.53" stop-color="#DCD2CD"/>
</linearGradient>
<linearGradient id="paint1_linear_2037_2347" x1="1162.9" y1="521.241" x2="1596" y2="521.241" gradientUnits="userSpaceOnUse">
<stop offset="0.47" stop-color="#DCD2CD"/>
<stop offset="1" stop-color="#F0E6E1"/>
</linearGradient>
</defs>
</svg>
